# Blender v2.79 (sub 0) OBJ File: 'petri_dish.blend'
# www.blender.org
mtllib petri_dish.mtl
o Cylinder
v 0.000000 0.077531 -1.094079
v 0.213444 0.077531 -1.073056
v 0.418686 0.077531 -1.010797
v 0.607837 0.077531 -0.909693
v 0.773630 0.077531 -0.773630
v 0.909693 0.077531 -0.607837
v 1.010797 0.077531 -0.418686
v 1.073056 0.077531 -0.213444
v 1.094079 0.077531 -0.000000
v 1.073056 0.077531 0.213444
v 1.010797 0.077531 0.418686
v 0.909693 0.077531 0.607837
v 0.773630 0.077531 0.773630
v 0.607837 0.077531 0.909693
v 0.418686 0.077531 1.010797
v 0.213444 0.077531 1.073056
v -0.000000 0.077531 1.094079
v -0.213445 0.077531 1.073056
v -0.418686 0.077531 1.010797
v -0.607838 0.077531 0.909693
v -0.773631 0.077531 0.773630
v -0.909694 0.077531 0.607837
v -1.010797 0.077531 0.418685
v -1.073056 0.077531 0.213443
v -1.094079 0.077531 -0.000001
v -1.073056 0.077531 -0.213445
v -1.010796 0.077531 -0.418687
v -0.909692 0.077531 -0.607839
v -0.773629 0.077531 -0.773631
v -0.607836 0.077531 -0.909694
v -0.418684 0.077531 -1.010797
v -0.213442 0.077531 -1.073056
v 0.000000 0.269283 -1.094079
v 0.213444 0.269283 -1.073056
v 0.418686 0.269283 -1.010797
v 0.607837 0.269283 -0.909693
v 0.773630 0.269283 -0.773630
v 0.909693 0.269283 -0.607837
v 1.010797 0.269283 -0.418686
v 1.073056 0.269283 -0.213444
v 1.094079 0.269283 -0.000000
v 1.073056 0.269283 0.213444
v 1.010797 0.269283 0.418686
v 0.909693 0.269283 0.607837
v 0.773630 0.269283 0.773630
v 0.607837 0.269283 0.909693
v 0.418686 0.269283 1.010797
v 0.213444 0.269283 1.073056
v -0.000000 0.269283 1.094079
v -0.213445 0.269283 1.073056
v -0.418686 0.269283 1.010797
v -0.607838 0.269283 0.909693
v -0.773631 0.269283 0.773630
v -0.909694 0.269283 0.607837
v -1.010797 0.269283 0.418685
v -1.073056 0.269283 0.213443
v -1.094079 0.269283 -0.000001
v -1.073056 0.269283 -0.213445
v -1.010796 0.269283 -0.418687
v -0.909692 0.269283 -0.607839
v -0.773629 0.269283 -0.773631
v -0.607836 0.269283 -0.909694
v -0.418684 0.269283 -1.010797
v -0.213442 0.269283 -1.073056
v 0.000000 0.116701 -1.052499
v 0.205332 0.116701 -1.032275
v 0.402774 0.116701 -0.972382
v 0.584738 0.116701 -0.875120
v 0.744230 0.116701 -0.744230
v 0.875121 0.116701 -0.584738
v 0.972382 0.116701 -0.402774
v 1.032275 0.116701 -0.205332
v 1.052499 0.116701 -0.000000
v 1.032275 0.116701 0.205332
v 0.972382 0.116701 0.402774
v 0.875121 0.116701 0.584738
v 0.744230 0.116701 0.744230
v 0.584738 0.116701 0.875121
v 0.402774 0.116701 0.972382
v 0.205332 0.116701 1.032275
v -0.000000 0.116701 1.052499
v -0.205333 0.116701 1.032275
v -0.402775 0.116701 0.972382
v -0.584738 0.116701 0.875120
v -0.744231 0.116701 0.744230
v -0.875121 0.116701 0.584737
v -0.972382 0.116701 0.402773
v -1.032276 0.116701 0.205331
v -1.052499 0.116701 -0.000001
v -1.032275 0.116701 -0.205333
v -0.972381 0.116701 -0.402775
v -0.875120 0.116701 -0.584739
v -0.744229 0.116701 -0.744230
v -0.584737 0.116701 -0.875121
v -0.402773 0.116701 -0.972382
v -0.205331 0.116701 -1.032276
v 0.000000 0.269283 -1.036954
v 0.202301 0.269283 -1.017030
v 0.396826 0.269283 -0.958022
v 0.576101 0.269283 -0.862197
v 0.733238 0.269283 -0.733238
v 0.862197 0.269283 -0.576101
v 0.958022 0.269283 -0.396826
v 1.017030 0.269283 -0.202301
v 1.036954 0.269283 -0.000000
v 1.017030 0.269283 0.202300
v 0.958022 0.269283 0.396826
v 0.862197 0.269283 0.576101
v 0.733238 0.269283 0.733238
v 0.576101 0.269283 0.862197
v 0.396826 0.269283 0.958022
v 0.202300 0.269283 1.017030
v -0.000000 0.269283 1.036954
v -0.202301 0.269283 1.017030
v -0.396826 0.269283 0.958022
v -0.576102 0.269283 0.862197
v -0.733239 0.269283 0.733238
v -0.862197 0.269283 0.576101
v -0.958022 0.269283 0.396825
v -1.017030 0.269283 0.202300
v -1.036956 0.269283 -0.000001
v -1.017030 0.269283 -0.202302
v -0.958021 0.269283 -0.396827
v -0.862196 0.269283 -0.576102
v -0.733237 0.269283 -0.733239
v -0.576100 0.269283 -0.862198
v -0.396824 0.269283 -0.958022
v -0.202299 0.269283 -1.017030
vt 0.165976 0.165976
vt 0.165976 0.165976
vt 0.165976 0.165976
vt 0.165976 0.165976
vt 0.165976 0.165976
vt 0.165976 0.165976
vt 0.165976 0.165976
vt 0.165976 0.165976
vt 0.165976 0.165976
vt 0.165976 0.165976
vt 0.165976 0.165976
vt 0.165976 0.165976
vt 0.165976 0.165976
vt 0.165976 0.165976
vt 0.165976 0.165976
vt 0.165976 0.165976
vt 0.165976 0.165976
vt 0.165976 0.165976
vt 0.165976 0.165976
vt 0.165976 0.165976
vt 0.165976 0.165976
vt 0.165976 0.165976
vt 0.165976 0.165976
vt 0.165976 0.165976
vt 0.165976 0.165976
vt 0.165976 0.165976
vt 0.165976 0.165976
vt 0.165976 0.165976
vt 0.165976 0.165976
vt 0.165976 0.165976
vt 0.165976 0.165976
vt 0.165976 0.165976
vt 0.165976 0.165976
vt 0.165976 0.165976
vt 0.165976 0.165976
vt 0.165976 0.165976
vt 0.165976 0.165976
vt 0.165976 0.165976
vt 0.165976 0.165976
vt 0.165976 0.165976
vt 0.165976 0.165976
vt 0.165976 0.165976
vt 0.165976 0.165976
vt 0.165976 0.165976
vt 0.165976 0.165976
vt 0.165976 0.165976
vt 0.165976 0.165976
vt 0.165976 0.165976
vt 0.165976 0.165976
vt 0.165976 0.165976
vt 0.165976 0.165976
vt 0.165976 0.165976
vt 0.165976 0.165976
vt 0.165976 0.165976
vt 0.165976 0.165976
vt 0.165976 0.165976
vt 0.165976 0.165976
vt 0.165976 0.165976
vt 0.165976 0.165976
vt 0.165976 0.165976
vt 0.165976 0.165976
vt 0.165976 0.165976
vt 0.165976 0.165976
vt 0.165976 0.165976
vt 0.165976 0.165976
vt 0.165976 0.165976
vt 0.165976 0.165976
vt 0.165976 0.165976
vt 0.165976 0.165976
vt 0.165976 0.165976
vt 0.165976 0.165976
vt 0.165976 0.165976
vt 0.165976 0.165976
vt 0.165976 0.165976
vt 0.165976 0.165976
vt 0.165976 0.165976
vt 0.165976 0.165976
vt 0.165976 0.165976
vt 0.165976 0.165976
vt 0.165976 0.165976
vt 0.165976 0.165976
vt 0.165976 0.165976
vt 0.165976 0.165976
vt 0.165976 0.165976
vt 0.165976 0.165976
vt 0.165976 0.165976
vt 0.165976 0.165976
vt 0.165976 0.165976
vt 0.165976 0.165976
vt 0.165976 0.165976
vt 0.165976 0.165976
vt 0.165976 0.165976
vt 0.165976 0.165976
vt 0.165976 0.165976
vt 0.165976 0.165976
vt 0.165976 0.165976
vt 0.165976 0.165976
vt 0.165976 0.165976
vt 0.165976 0.165976
vt 0.165976 0.165976
vt 0.165976 0.165976
vt 0.165976 0.165976
vt 0.165976 0.165976
vt 0.165976 0.165976
vt 0.165976 0.165976
vt 0.165976 0.165976
vt 0.165976 0.165976
vt 0.165976 0.165976
vt 0.165976 0.165976
vt 0.165976 0.165976
vt 0.165976 0.165976
vt 0.165976 0.165976
vt 0.165976 0.165976
vt 0.165976 0.165976
vt 0.165976 0.165976
vt 0.165976 0.165976
vt 0.165976 0.165976
vt 0.165976 0.165976
vt 0.165976 0.165976
vt 0.165976 0.165976
vt 0.165976 0.165976
vt 0.165976 0.165976
vt 0.165976 0.165976
vt 0.165976 0.165976
vt 0.165976 0.165976
vt 0.165976 0.165976
vt 0.165976 0.165976
vt 0.165976 0.165976
vt 0.293032 0.247810
vt 0.346209 0.212279
vt 0.405295 0.187804
vt 0.468021 0.175327
vt 0.531975 0.175327
vt 0.594701 0.187804
vt 0.653788 0.212279
vt 0.706964 0.247810
vt 0.752188 0.293033
vt 0.787719 0.346210
vt 0.812194 0.405297
vt 0.824671 0.468023
vt 0.824671 0.531978
vt 0.812194 0.594704
vt 0.787719 0.653791
vt 0.752187 0.706968
vt 0.706964 0.752191
vt 0.653787 0.787722
vt 0.594701 0.812196
vt 0.531975 0.824673
vt 0.468021 0.824672
vt 0.405295 0.812195
vt 0.346209 0.787720
vt 0.293032 0.752189
vt 0.247810 0.706966
vt 0.212278 0.653789
vt 0.187804 0.594703
vt 0.175327 0.531977
vt 0.175327 0.468022
vt 0.187804 0.405296
vt 0.212279 0.346209
vt 0.247810 0.293033
vt 0.293032 0.247810
vt 0.247810 0.293033
vt 0.212279 0.346209
vt 0.187804 0.405296
vt 0.175327 0.468022
vt 0.175327 0.531977
vt 0.187804 0.594703
vt 0.212278 0.653789
vt 0.247810 0.706966
vt 0.293032 0.752189
vt 0.346209 0.787720
vt 0.405295 0.812195
vt 0.468021 0.824672
vt 0.531975 0.824673
vt 0.594701 0.812196
vt 0.653787 0.787722
vt 0.706964 0.752191
vt 0.752187 0.706968
vt 0.787719 0.653791
vt 0.812194 0.594704
vt 0.824671 0.531978
vt 0.824671 0.468023
vt 0.812194 0.405297
vt 0.787719 0.346210
vt 0.752188 0.293033
vt 0.706964 0.247810
vt 0.653788 0.212279
vt 0.594701 0.187804
vt 0.531975 0.175327
vt 0.468021 0.175327
vt 0.405295 0.187804
vt 0.346209 0.212279
vn -0.0980 0.0000 -0.9952
vn -0.2903 0.0000 -0.9569
vn -0.4714 0.0000 -0.8819
vn -0.6344 0.0000 -0.7730
vn -0.7730 0.0000 -0.6344
vn -0.8819 0.0000 -0.4714
vn -0.9569 0.0000 -0.2903
vn -0.9952 0.0000 -0.0980
vn -0.9952 0.0000 0.0980
vn -0.9569 0.0000 0.2903
vn -0.8819 0.0000 0.4714
vn -0.7730 0.0000 0.6344
vn -0.6344 0.0000 0.7730
vn -0.4714 0.0000 0.8819
vn -0.2903 0.0000 0.9569
vn -0.0980 0.0000 0.9952
vn 0.0980 0.0000 0.9952
vn 0.2903 0.0000 0.9569
vn 0.4714 0.0000 0.8819
vn 0.6344 0.0000 0.7730
vn 0.7730 0.0000 0.6344
vn 0.8819 0.0000 0.4714
vn 0.9569 0.0000 0.2903
vn 0.9952 0.0000 0.0980
vn 0.9952 0.0000 -0.0980
vn 0.9569 0.0000 -0.2903
vn 0.8819 0.0000 -0.4714
vn 0.7730 0.0000 -0.6344
vn 0.6344 0.0000 -0.7730
vn 0.4714 0.0000 -0.8819
vn 0.2903 0.0000 -0.9569
vn 0.0980 0.0000 -0.9952
vn 0.0975 -0.1009 0.9901
vn 0.2888 -0.1009 0.9521
vn 0.4690 -0.1009 0.8774
vn 0.6312 -0.1009 0.7691
vn 0.7691 -0.1009 0.6312
vn 0.8774 -0.1009 0.4690
vn 0.9521 -0.1009 0.2888
vn 0.9901 -0.1009 0.0975
vn 0.9901 -0.1009 -0.0975
vn 0.9521 -0.1009 -0.2888
vn 0.8774 -0.1009 -0.4690
vn 0.7691 -0.1009 -0.6312
vn 0.6312 -0.1009 -0.7691
vn 0.4690 -0.1009 -0.8774
vn 0.2888 -0.1009 -0.9521
vn 0.0975 -0.1009 -0.9901
vn -0.0975 -0.1009 -0.9901
vn -0.2888 -0.1009 -0.9521
vn -0.4690 -0.1009 -0.8774
vn -0.6312 -0.1009 -0.7691
vn -0.7691 -0.1009 -0.6312
vn -0.8774 -0.1009 -0.4690
vn -0.9521 -0.1009 -0.2888
vn -0.9901 -0.1009 -0.0975
vn -0.9901 -0.1009 0.0975
vn -0.9521 -0.1009 0.2888
vn -0.8774 -0.1009 0.4690
vn -0.7691 -0.1009 0.6312
vn -0.6312 -0.1009 0.7691
vn -0.4690 -0.1009 0.8774
vn -0.2888 -0.1009 0.9521
vn -0.0975 -0.1009 0.9901
vn 0.0000 1.0000 -0.0000
vn 0.0000 -1.0000 -0.0000
usemtl Transparency
s off
f 32/1/1 64/2/1 33/3/1 1/4/1
f 31/5/2 63/6/2 64/2/2 32/1/2
f 30/7/3 62/8/3 63/6/3 31/5/3
f 29/9/4 61/10/4 62/8/4 30/7/4
f 28/11/5 60/12/5 61/10/5 29/9/5
f 27/13/6 59/14/6 60/12/6 28/11/6
f 26/15/7 58/16/7 59/14/7 27/13/7
f 25/17/8 57/18/8 58/16/8 26/15/8
f 24/19/9 56/20/9 57/18/9 25/17/9
f 23/21/10 55/22/10 56/20/10 24/19/10
f 22/23/11 54/24/11 55/22/11 23/21/11
f 21/25/12 53/26/12 54/24/12 22/23/12
f 20/27/13 52/28/13 53/26/13 21/25/13
f 19/29/14 51/30/14 52/28/14 20/27/14
f 18/31/15 50/32/15 51/30/15 19/29/15
f 17/33/16 49/34/16 50/32/16 18/31/16
f 16/35/17 48/36/17 49/34/17 17/33/17
f 15/37/18 47/38/18 48/36/18 16/35/18
f 14/39/19 46/40/19 47/38/19 15/37/19
f 13/41/20 45/42/20 46/40/20 14/39/20
f 12/43/21 44/44/21 45/42/21 13/41/21
f 11/45/22 43/46/22 44/44/22 12/43/22
f 10/47/23 42/48/23 43/46/23 11/45/23
f 9/49/24 41/50/24 42/48/24 10/47/24
f 8/51/25 40/52/25 41/50/25 9/49/25
f 7/53/26 39/54/26 40/52/26 8/51/26
f 6/55/27 38/56/27 39/54/27 7/53/27
f 5/57/28 37/58/28 38/56/28 6/55/28
f 4/59/29 36/60/29 37/58/29 5/57/29
f 3/61/30 35/62/30 36/60/30 4/59/30
f 2/63/31 34/64/31 35/62/31 3/61/31
f 1/4/32 33/3/32 34/64/32 2/63/32
f 96/65/33 65/66/33 97/67/33 128/68/33
f 95/69/34 96/65/34 128/68/34 127/70/34
f 94/71/35 95/69/35 127/70/35 126/72/35
f 93/73/36 94/71/36 126/72/36 125/74/36
f 92/75/37 93/73/37 125/74/37 124/76/37
f 91/77/38 92/75/38 124/76/38 123/78/38
f 90/79/39 91/77/39 123/78/39 122/80/39
f 89/81/40 90/79/40 122/80/40 121/82/40
f 88/83/41 89/81/41 121/82/41 120/84/41
f 87/85/42 88/83/42 120/84/42 119/86/42
f 86/87/43 87/85/43 119/86/43 118/88/43
f 85/89/44 86/87/44 118/88/44 117/90/44
f 84/91/45 85/89/45 117/90/45 116/92/45
f 83/93/46 84/91/46 116/92/46 115/94/46
f 82/95/47 83/93/47 115/94/47 114/96/47
f 81/97/48 82/95/48 114/96/48 113/98/48
f 80/99/49 81/97/49 113/98/49 112/100/49
f 79/101/50 80/99/50 112/100/50 111/102/50
f 78/103/51 79/101/51 111/102/51 110/104/51
f 77/105/52 78/103/52 110/104/52 109/106/52
f 76/107/53 77/105/53 109/106/53 108/108/53
f 75/109/54 76/107/54 108/108/54 107/110/54
f 74/111/55 75/109/55 107/110/55 106/112/55
f 73/113/56 74/111/56 106/112/56 105/114/56
f 72/115/57 73/113/57 105/114/57 104/116/57
f 71/117/58 72/115/58 104/116/58 103/118/58
f 70/119/59 71/117/59 103/118/59 102/120/59
f 69/121/60 70/119/60 102/120/60 101/122/60
f 68/123/61 69/121/61 101/122/61 100/124/61
f 67/125/62 68/123/62 100/124/62 99/126/62
f 66/127/63 67/125/63 99/126/63 98/128/63
f 65/66/64 66/127/64 98/128/64 97/67/64
f 33/3/65 64/2/65 128/68/65 97/67/65
f 64/2/65 63/6/65 127/70/65 128/68/65
f 63/6/65 62/8/65 126/72/65 127/70/65
f 62/8/65 61/10/65 125/74/65 126/72/65
f 61/10/65 60/12/65 124/76/65 125/74/65
f 60/12/65 59/14/65 123/78/65 124/76/65
f 59/14/65 58/16/65 122/80/65 123/78/65
f 58/16/65 57/18/65 121/82/65 122/80/65
f 57/18/65 56/20/65 120/84/65 121/82/65
f 56/20/65 55/22/65 119/86/65 120/84/65
f 55/22/65 54/24/65 118/88/65 119/86/65
f 54/24/65 53/26/65 117/90/65 118/88/65
f 53/26/65 52/28/65 116/92/65 117/90/65
f 52/28/65 51/30/65 115/94/65 116/92/65
f 51/30/65 50/32/65 114/96/65 115/94/65
f 50/32/65 49/34/65 113/98/65 114/96/65
f 49/34/65 48/36/65 112/100/65 113/98/65
f 48/36/65 47/38/65 111/102/65 112/100/65
f 47/38/65 46/40/65 110/104/65 111/102/65
f 46/40/65 45/42/65 109/106/65 110/104/65
f 45/42/65 44/44/65 108/108/65 109/106/65
f 44/44/65 43/46/65 107/110/65 108/108/65
f 43/46/65 42/48/65 106/112/65 107/110/65
f 42/48/65 41/50/65 105/114/65 106/112/65
f 41/50/65 40/52/65 104/116/65 105/114/65
f 40/52/65 39/54/65 103/118/65 104/116/65
f 39/54/65 38/56/65 102/120/65 103/118/65
f 38/56/65 37/58/65 101/122/65 102/120/65
f 37/58/65 36/60/65 100/124/65 101/122/65
f 36/60/65 35/62/65 99/126/65 100/124/65
f 35/62/65 34/64/65 98/128/65 99/126/65
f 34/64/65 33/3/65 97/67/65 98/128/65
usemtl Texture
f 1/129/66 2/130/66 3/131/66 4/132/66 5/133/66 6/134/66 7/135/66 8/136/66 9/137/66 10/138/66 11/139/66 12/140/66 13/141/66 14/142/66 15/143/66 16/144/66 17/145/66 18/146/66 19/147/66 20/148/66 21/149/66 22/150/66 23/151/66 24/152/66 25/153/66 26/154/66 27/155/66 28/156/66 29/157/66 30/158/66 31/159/66 32/160/66
f 65/161/65 96/162/65 95/163/65 94/164/65 93/165/65 92/166/65 91/167/65 90/168/65 89/169/65 88/170/65 87/171/65 86/172/65 85/173/65 84/174/65 83/175/65 82/176/65 81/177/65 80/178/65 79/179/65 78/180/65 77/181/65 76/182/65 75/183/65 74/184/65 73/185/65 72/186/65 71/187/65 70/188/65 69/189/65 68/190/65 67/191/65 66/192/65
